{"title":"007 Spectre 2015 HDTS XViD-26k","uid":12815236,"size":1547307957,"categoryP":"video","categoryS":"movies","magnet":"?xt=urn:btih:c929f36bd39cb9e8960d0f305c1d8ac5352cd779&amp;dn=007+Spectre+2015+HDTS+XViD-26k&amp;tr=udp%3A%2F%2Ftracker.leechers-paradise.org%3A6969&amp;tr=udp%3A%2F%2Fzer0day.ch%3A1337&amp;tr=udp%3A%2F%2Fopen.demonii.com%3A1337&amp;tr=udp%3A%2F%2Ftracker.coppersurfer.tk%3A6969&amp;tr=udp%3A%2F%2Fexodus.desync.com%3A6969","seeders":5,"leechers":4,"uploader":".BONE.","files":1,"time":1448228438,"description":"[code]\r\n \r\n  \nhttp://www.imdb.com/title/tt2379713/\r\n \r\nPlot:\r\n \r\nA cryptic message from Bond's past sends him on a trail to uncover a sinister organization. While M battles political forces to keep the secret service alive, Bond peels back the layers of deceit to\r\nreveal the terrible truth behind SPECTRE.\r\n \r\n \r\n \r\nSources - VIDEO: 720p.mp4 ....Thanks :P\r\n          AUDIO: 720p.mp4 ....Thanks :P\r\n \r\n \r\n \r\nComplete name               : Spectre.2015.HDTS.XViD-26k\r\nFormat                      : AVI\r\nFormat/Info                 : Audio Video Interleave\r\nFile size                   : 1.44 GiB\r\nDuration                    : 2h 28mn\r\nOverall bit rate            : 1 389 Kbps\r\nWriting library             : VirtualDub build 32839/release\r\n \r\nVideo\r\nID                          : 0\r\nFormat                      : MPEG-4 Visual\r\nFormat profile              : Advanced   \r\nFormat settings, BVOP       : 2\r\nFormat settings, QPel       : Yes\r\nFormat settings, GMC        : No warppoints\r\nFormat settings, Matrix     : Default (H.263)\r\nMuxing mode                 : Packed bitstream\r\nCodec ID                    : XVID\r\nCodec ID/Hint               : XviD\r\nDuration                    : 2h 28mn\r\nBit rate                    : 1 251 Kbps\r\nWidth                       : 720 pixels\r\nHeight                      : 384 pixels\r\nDisplay aspect ratio        : 1.85:1\r\nFrame rate                  : 23.976 fps\r\nColor space                 : YUV\r\nChroma subsampling          : 4:2:0\r\nBit depth                   : 8 bits\r\nScan type                   : Progressive\r\nCompression mode            : Lossy\r\nBits/(Pixel*Frame)          : 0.189\r\nStream size                 : 1.30 GiB (90%)\r\nWriting library             : XviD 66\r\n \r\nAudio\r\nID                          : 1\r\nFormat                      : MPEG Audio\r\nFormat version              : Version 1\r\nFormat profile              : Layer 3\r\nMode                        : Joint stereo\r\nMode extension              : MS Stereo\r\nCodec ID                    : 55\r\nCodec ID/Hint               : MP3\r\nDuration                    : 2h 28mn\r\nBit rate mode               : Constant\r\nBit rate                    : 128 Kbps\r\nChannel(s)                  : 2 channels\r\nSampling rate               : 44.1 KHz\r\nCompression mode            : Lossy\r\nStream size                 : 136 MiB (9%)\r\nAlignment                   : Split accross interleaves\r\nInterleave, duration        : 42 ms (1.00 video frame)\r\n \r\nWE ARE &quot;DOIN IT RIGHT THE FIRST TIME&quot;\r\n \r\n \r\nTook the new 720p source which has KORSUBS (didnt crop or blur them) and occasional site watermark in the\r\nbottom corner (not bouncing around like the other source out which is pure and utter shit and CPG only made it worse and even goin as far as taggin it HD TS come on idiotboy everybody can tell that is CAM audio son....)\r\n \r\nTook the 720p made script to resize, denoise, dropped yellow tint with gradient curves filter, then adjsuted RGB, Hue, saturation, brightness on several levels, intensity, contrast, sharpened it up sum then slight cleaning of audio and remuxed it back to finished encode.. enjoy til better NOSUB source comes along but this will do us til RETAIL BluRay .....\r\n \r\n \r\nDOES HAVE HARDCODED ENGLISH SUBS WHEN NEEDED\r\n \r\nENJOY\r\n  \nhttp://imgur.com/a/ffZoj.jpg \nhttp://imgur.com/kymrq90.jpg \nhttp://imgur.com/newhsle.jpg \nhttp://imgur.com/qh5CQfJ.jpg \nhttp://imgur.com/m02jKZA.jpg \nhttp://imgur.com/wDpZuPT.jpg\r\n \r\nGreetz:\r\n \r\nTo those that deserve it. You know who you are..\r\n \r\n \r\n \r\nTo all the people who have helped me  you know who you are\r\n \r\n \r\n \r\nAnything to offer email us @:","torrent":{"xt":"urn:btih:c929f36bd39cb9e8960d0f305c1d8ac5352cd779","amp;dn":"007+Spectre+2015+HDTS+XViD-26k","amp;tr":["udp%3A%2F%2Ftracker.leechers-paradise.org%3A6969","udp%3A%2F%2Fzer0day.ch%3A1337","udp%3A%2F%2Fopen.demonii.com%3A1337","udp%3A%2F%2Ftracker.coppersurfer.tk%3A6969","udp%3A%2F%2Fexodus.desync.com%3A6969"],"infoHash":"c929f36bd39cb9e8960d0f305c1d8ac5352cd779","infoHashBuffer":{"type":"Buffer","data":[201,41,243,107,211,156,185,232,150,13,15,48,92,29,138,197,53,44,215,121]},"announce":[],"urlList":[]}}